<svg width="320" height="378" viewBox="0 0 320 378" fill="none" xmlns="http://www.w3.org/2000/svg">
<path d="M142.281 256.314C134.885 262.219 130.343 272.47 117.691 268.642C117.626 267.799 117.302 266.112 117.237 264.425C117.042 188.773 116.783 113.121 116.653 37.4689C116.653 23.5194 115.81 25.92 127.943 25.8551C174.073 25.6605 220.139 25.5956 266.27 25.4658C268.476 25.4658 270.682 25.4658 273.407 25.4658C273.407 54.7923 273.407 83.5348 273.407 112.602C223.513 92.229 179.069 99.1713 145.72 142.966C118.794 178.392 119.768 217.191 142.281 256.314ZM145.396 76.5925C179.783 76.5925 213.911 76.5925 248.103 76.5925C248.103 72.0508 248.103 68.3525 248.103 64.6543C213.716 64.6543 179.718 64.6543 145.396 64.6543C145.396 68.9365 145.396 72.6347 145.396 76.5925ZM145.396 101.118C160.578 101.118 174.982 101.118 189.645 101.118C189.645 96.7707 189.645 92.9427 189.645 88.9849C174.657 88.9849 160.124 88.9849 145.396 88.9849C145.396 93.2671 145.396 96.9653 145.396 101.118Z" fill="#0B120F"/>
<path d="M319.599 200.97C317.523 239.12 301.238 268.317 266.98 285.056C233.372 301.536 200.477 297.643 169.917 276.168C165.506 273.053 162.91 272.729 159.407 276.816C156.941 279.736 154.021 282.202 151.167 284.732C146.69 288.69 141.694 292.193 145.392 299.655C146.106 301.147 144.159 304.845 142.473 306.467C118.856 329.111 95.109 351.56 71.4272 374.009C67.0153 378.162 62.5384 377.967 58.3211 374.009C53.7794 369.727 49.3675 365.25 45.215 360.514C41.2573 355.972 41.2573 351.041 45.7341 346.759C69.4159 324.245 93.0976 301.731 117.104 279.541C119.245 277.595 123.981 276.622 126.706 277.53C130.599 278.893 132.805 278.309 135.465 275.584C139.812 271.042 144.354 266.76 149.026 262.543C151.686 260.142 151.88 258.195 149.674 255.211C110.162 201.619 139.228 119.479 214.945 107.8C261.92 100.533 309.867 136.153 317.783 183.971C318.691 189.745 319.015 195.585 319.599 200.97ZM224.742 279.866C267.759 280.515 303.768 245.933 304.547 203.176C305.325 158.537 270.679 122.463 226.429 121.879C183.802 121.295 146.884 157.175 146.43 199.607C146.041 243.986 180.363 279.152 224.742 279.866Z" fill="#0A110D"/>
<path d="M58.2585 292.194C38.9238 292.194 20.4326 292.194 1.42225 292.194C1.22761 289.988 0.903209 288.041 0.903209 286.095C0.903209 209.535 1.03296 133.039 0.773438 56.4788C0.773438 49.6014 2.655 47.6549 9.40268 47.9145C23.0278 48.4335 36.7179 48.3686 50.343 47.9793C56.5716 47.7847 58.8425 49.4067 58.7776 56.0895C58.5181 112.472 58.7127 168.854 58.7127 225.301C58.7127 245.414 58.6478 265.592 58.5829 285.705C58.5829 287.652 58.3883 289.663 58.2585 292.194ZM29.7106 249.826C29.7106 249.761 29.7106 249.761 29.7106 249.696C23.6766 249.696 17.6427 249.956 11.6087 249.631C6.35326 249.372 5.89907 252.227 6.02883 256.379C6.15859 260.207 6.02885 263.451 11.4789 263.321C23.5469 263.062 35.6148 262.997 47.6828 263.192C53.1978 263.321 53.0031 259.947 53.1329 256.184C53.1978 252.421 52.7436 249.566 47.8775 249.696C41.7786 250.021 35.7446 249.826 29.7106 249.826ZM30.035 74.9701C23.8064 75.035 17.5129 75.1647 11.2843 74.9701C6.67767 74.8403 6.28836 77.5005 6.35324 81.0041C6.41812 84.2482 6.02883 87.3625 10.8949 87.3625C23.4171 87.2976 35.9393 87.2976 48.4614 87.4922C53.3924 87.5571 52.9382 84.2482 53.0031 81.069C53.068 77.76 52.9382 74.7754 48.2019 74.9701C42.103 75.0998 36.069 74.9701 30.035 74.9701ZM29.1267 112.666C35.4202 112.601 41.6488 112.537 47.9424 112.666C52.8085 112.796 52.4192 109.487 52.4841 106.308C52.549 102.999 52.6787 100.014 47.8775 100.079C35.55 100.274 23.2874 100.339 10.9599 100.209C6.15862 100.144 6.41814 103.323 6.28837 106.503C6.22349 109.876 6.35325 112.796 11.0247 112.666C16.9938 112.537 23.0927 112.666 29.1267 112.666Z" fill="#0A110D"/>
<path d="M69.4829 26.2441C82.5241 26.2441 95.3706 26.2441 108.931 26.2441C109.061 28.7096 109.32 30.8507 109.32 32.9918C109.32 111.499 109.255 190.005 109.255 268.577C109.255 273.703 107.633 277.401 104.259 281.618C94.9813 293.037 83.3675 294.724 69.418 292.064C69.4829 203.955 69.4829 115.521 69.4829 26.2441ZM102.637 48.8878C93.2295 48.8878 84.4056 48.8878 75.1924 48.8878C75.1924 51.7426 75.1924 54.2081 75.1924 56.998C84.5354 56.998 93.3593 56.998 102.637 56.998C102.637 54.273 102.637 51.8724 102.637 48.8878ZM102.897 255.665C93.3593 255.665 84.211 255.665 75.1924 255.665C75.1924 258.585 75.1924 260.986 75.1924 263.386C84.6003 263.386 93.5539 263.386 102.897 263.386C102.897 260.467 102.897 258.131 102.897 255.665Z" fill="#0B120F"/>
<path d="M262.182 0.161565C262.182 6.64972 262.182 11.9051 262.182 17.485C260.041 17.6796 258.289 17.9391 256.537 17.9391C197.3 17.9391 137.998 17.9391 78.7615 17.9391C73.6359 17.9391 69.1591 17.2903 68.5103 10.9968C67.9263 5.61163 72.2085 1.06992 78.3074 0.291336C79.605 0.0966916 80.9675 0.161565 82.33 0.161565C105.168 0.161565 127.942 0.0966797 150.78 0.0966797C184.519 0.0966797 218.322 0.0966797 252.06 0.0966797C255.369 0.161561 258.743 0.161565 262.182 0.161565Z" fill="#0B120F"/>
<path d="M225.654 131.158C263.48 130.833 294.947 161.457 295.336 199.089C295.791 238.991 265.686 270.329 226.497 270.718C187.698 271.107 155.841 240.159 155.452 201.684C155.127 163.08 186.465 131.547 225.654 131.158Z" fill="#B2C9D1"/>
</svg>
